<?xml version="1.0" encoding="utf-8"?>
<!-- Generator: Adobe Illustrator 21.0.0, SVG Export Plug-In . SVG Version: 6.00 Build 0)  -->
<svg version="1.1" id="图层_1" xmlns="http://www.w3.org/2000/svg" xmlns:xlink="http://www.w3.org/1999/xlink" x="0px" y="0px"
	 viewBox="0 0 512 512" style="enable-background:new 0 0 512 512;" xml:space="preserve">
<path d="M256,129c33.9,0,65.8,13.2,89.8,37.2c24,24,37.2,55.9,37.2,89.8s-13.2,65.8-37.2,89.8c-24,24-55.9,37.2-89.8,37.2
	s-65.8-13.2-89.8-37.2c-24-24-37.2-55.9-37.2-89.8s13.2-65.8,37.2-89.8S222.1,129,256,129 M256,128c-70.7,0-128,57.3-128,128
	s57.3,128,128,128s128-57.3,128-128S326.7,128,256,128L256,128z"/>
</svg>
