<?xml version="1.0" encoding="utf-8"?>
<!-- Generator: Adobe Illustrator 21.0.0, SVG Export Plug-In . SVG Version: 6.00 Build 0)  -->
<svg version="1.1" id="line" xmlns="http://www.w3.org/2000/svg" xmlns:xlink="http://www.w3.org/1999/xlink" x="0px" y="0px"
	 viewBox="0 0 512 512" style="enable-background:new 0 0 512 512;" xml:space="preserve">
<style type="text/css">
	.st0{fill-opacity:0;stroke:#000000;}
</style>
<g>
	<path class="st0" d="M191.8,293h-7.4v-33.4h-29.7v33.3h-7.4v-59.2c0-2,0.4-4,1.2-5.7c0.8-1.8,1.8-3.4,3.2-4.7
		c1.4-1.4,2.9-2.4,4.7-3.2c1.8-0.8,3.7-1.2,5.7-1.2h14.8c2,0,4,0.4,5.7,1.2c1.8,0.8,3.4,1.8,4.7,3.2c1.4,1.4,2.4,2.9,3.2,4.7
		s1.2,3.7,1.2,5.7V293H191.8z M184.4,252.3v-18.5c0-2-0.7-3.8-2.2-5.2c-1.5-1.5-3.2-2.2-5.2-2.2h-14.9c-2,0-3.8,0.7-5.2,2.2
		c-1.5,1.5-2.2,3.2-2.2,5.2v18.5H184.4z"/>
	<path class="st0" d="M228.2,293h-7.4V282c0-2-0.7-3.8-2.2-5.2s-3.2-2.2-5.2-2.2H206V293h-7.5v-74.1h7.4v48.2l9.6-14.8h9l-9.7,14.8
		c1.9,0.2,3.6,0.7,5.2,1.5c1.6,0.8,3.1,1.9,4.3,3.2s2.2,2.9,2.9,4.6c0.7,1.7,1.1,3.6,1.1,5.5V293H228.2z"/>
	<path class="st0" d="M272,278.3c0,2-0.4,4-1.2,5.7c-0.8,1.8-1.8,3.4-3.2,4.7c-1.4,1.4-2.9,2.4-4.7,3.2c-1.8,0.8-3.7,1.2-5.7,1.2
		h-7.4c-2,0-4-0.4-5.7-1.2c-1.8-0.8-3.4-1.8-4.7-3.2c-1.4-1.4-2.4-2.9-3.2-4.7c-0.8-1.8-1.2-3.7-1.2-5.7V267h29.6
		c0-2-0.7-3.8-2.2-5.2c-1.5-1.5-3.2-2.2-5.2-2.2h-18.6v-7.4h18.5c2,0,4,0.4,5.7,1.2c1.8,0.8,3.4,1.8,4.7,3.2
		c1.4,1.4,2.4,2.9,3.2,4.7c0.8,1.8,1.2,3.7,1.2,5.7v11.2H272z M242.3,278.3c0,2,0.7,3.8,2.2,5.2c1.5,1.5,3.2,2.2,5.2,2.2h7.4
		c2,0,3.8-0.7,5.2-2.2c1.5-1.5,2.2-3.2,2.2-5.2v-3.7h-22.2V278.3z"/>
	<path class="st0" d="M300.4,259.6H293c-2,0-3.8,0.7-5.2,2.2c-1.5,1.5-2.2,3.2-2.2,5.2V293h-7.4V267c0-2,0.4-4,1.2-5.7
		c0.8-1.8,1.8-3.4,3.2-4.7c1.4-1.4,2.9-2.4,4.7-3.2c1.8-0.8,3.7-1.2,5.7-1.2h7.4V259.6z"/>
	<path class="st0" d="M321.6,293c-2,0-4-0.4-5.7-1.2c-1.8-0.8-3.4-1.8-4.7-3.2c-1.4-1.4-2.4-2.9-3.2-4.7c-0.8-1.8-1.2-3.7-1.2-5.7
		v-26h7.4v25.9c0,2,0.7,3.8,2.2,5.2c1.5,1.5,3.2,2.2,5.2,2.2V293z"/>
	<path class="st0" d="M364.7,293h-7.4v-26c0-2-0.7-3.8-2.2-5.2c-1.5-1.5-3.2-2.2-5.2-2.2h-7.4c-2,0-3.8,0.7-5.2,2.2
		c-1.5,1.5-2.2,3.2-2.2,5.2V293h-7.4V267c0-2,0.4-4,1.2-5.7c0.8-1.8,1.8-3.4,3.2-4.7c1.4-1.4,2.9-2.4,4.7-3.2
		c1.8-0.8,3.7-1.2,5.7-1.2h7.4c2,0,4,0.4,5.7,1.2c1.8,0.8,3.4,1.8,4.7,3.2c1.4,1.4,2.4,2.9,3.2,4.7c0.8,1.8,1.2,3.7,1.2,5.7
		L364.7,293L364.7,293z"/>
</g>
</svg>
